#N canvas 0 0 576 560 10;
#X obj 3 5 cnv 15 301 42 empty empty pv~ 20 20 2 37 #e0e0e0 #000000 0;
#X obj 305 6 cnv 15 250 40 empty empty empty 12 13 0 18 #7c7c7c #e0e4dc 0;
#N canvas 0 22 450 278 (subpatch) 0;
#X coords 0 1 100 -1 302 42 1 0 0;
#X restore 2 5 graph;
#N canvas 382 141 749 319 (subpatch) 0;
#X coords 0 -1 1 1 252 42 2 100 100;
#X restore 304 5 pd;
#X obj 336 10 cnv 10 10 10 empty empty xlab 0 15 2 30 #7c7c7c #e0e4dc 0;
#X obj 494 26 cnv 10 10 10 empty empty library 0 6 2 13 #7c7c7c #e0e4dc 0;
#X obj 23 41 cnv 4 4 4 empty empty Simple 0 28 2 18 #e0e0e0 #000000 0;
#X obj 84 41 cnv 4 4 4 empty empty pitchshifter 0 28 2 18 #e0e0e0 #000000 0;
#X obj 193 41 cnv 4 4 4 empty empty for 0 28 2 18 #e0e0e0 #000000 0;
#X obj 230 41 cnv 4 4 4 empty empty PureData 0 28 2 18 #e0e0e0 #000000 0;
#X obj 3 310 cnv 3 550 3 empty empty inlets 8 12 0 13 #dcdcdc #000000 0;
#X obj 100 316 cnv 17 3 17 empty empty 1 5 9 0 16 #dcdcdc #9c9c9c 0;
#X text 125 336 float <cents>;
#X text 360 336 Cents to transpose;
#X obj 3 388 cnv 3 550 3 empty empty flags 8 12 0 13 #dcdcdc #000000 0;
#X text 125 406 -fftsize <fftsize> — fftsize used to perform the pitch shifter;
#X obj 3 528 cnv 15 552 21 empty empty empty 20 12 0 14 #e0e0e0 #202020 0;
#X text 68 87 [pv~] A simple phase vocoder for Pure Data \, providing real-time pitch shifting.;
#X obj 261 176 nbx 5 16 -1e+37 1e+37 0 0 empty empty empty 0 -9 0 10 #fcfcfc #000000 #000000 0 256;
#X text 322 176 Cents;
#X obj 174 144 osc~ 440;
#X obj 173 222 dac~;
#X text 125 315 signal;
#X text 360 315 Input signal;
#X obj 173 199 pv~ -fftsize 4096;
#X connect 18 0 24 0;
#X connect 20 0 24 0;
#X connect 24 0 21 0;
#X connect 24 0 21 1;
